<?xml version="1.0" standalone="no"?>
<!DOCTYPE svg PUBLIC "-//W3C//DTD SVG 20010904//EN"
 "http://www.w3.org/TR/2001/REC-SVG-20010904/DTD/svg10.dtd">
<svg version="1.0" xmlns="http://www.w3.org/2000/svg"
 width="512.000000pt" height="512.000000pt" viewBox="0 0 512.000000 512.000000"
 preserveAspectRatio="xMidYMid meet">

<g transform="translate(0.000000,512.000000) scale(0.100000,-0.100000)"
fill="#000000" stroke="none">
<path d="M3557 4554 c-46 -46 -44 -108 4 -153 22 -20 33 -21 280 -21 l256 0
26 26 c46 46 44 108 -4 153 -22 20 -33 21 -280 21 l-256 0 -26 -26z"/>
<path d="M3562 4025 c-39 -32 -48 -72 -28 -119 27 -65 41 -67 432 -64 l346 3
29 33 c31 35 37 73 17 117 -24 53 -37 55 -417 55 l-349 0 -30 -25z"/>
<path d="M3582 3505 c-39 -17 -66 -72 -57 -116 4 -16 20 -40 37 -54 l30 -25
248 0 248 0 30 25 c39 32 48 72 28 119 -25 60 -52 66 -308 66 -171 -1 -231 -4
-256 -15z"/>
<path d="M2140 2541 l0 -760 -82 -42 c-166 -86 -295 -254 -333 -434 -70 -335
135 -663 468 -749 56 -15 61 -14 137 10 359 113 540 530 382 876 -61 132 -184
256 -309 310 l-53 23 0 763 0 762 -105 0 -105 0 0 -759z"/>
<path d="M3557 2954 c-46 -46 -44 -108 4 -153 22 -21 31 -21 384 -21 395 0
390 -1 415 59 17 42 5 95 -27 121 -25 19 -38 20 -388 20 l-362 0 -26 -26z"/>
<path d="M3562 2425 c-39 -32 -48 -72 -28 -119 25 -60 52 -66 306 -66 254 0
281 6 306 66 20 47 11 87 -28 119 l-30 25 -248 0 -248 0 -30 -25z"/>
</g>
</svg>
